/* XPM */
static char *_5b35f2391944eb1a597a765da90ca11RMD1lo8nFkpMu01q[] = {
/* columns rows colors chars-per-pixel */
"38 38 169 2 ",
"   c #DCCABE",
".  c #D7BFB3",
"X  c #D1B1A5",
"o  c #CFADA2",
"O  c #C39591",
"+  c #C39490",
"@  c #BE8B8B",
"#  c #A86E79",
"$  c #735B69",
"%  c #9E6B76",
"&  c #BA8688",
"*  c #C59893",
"=  c #D1B0A4",
"-  c #C69994",
";  c #CCA79E",
":  c #D3B6AA",
">  c #D4B8AC",
",  c #CEAAA0",
"<  c #C9A19B",
"1  c #C89E98",
"2  c #C69B95",
"3  c #C69A94",
"4  c #C2928F",
"5  c #B78788",
"6  c #745D6A",
"7  c #AB8082",
"8  c #C1918E",
"9  c #C49591",
"0  c #C59993",
"q  c #C79C96",
"w  c #C79D97",
"e  c #B67F84",
"r  c #B67E83",
"t  c #BC898A",
"y  c #C1908E",
"u  c #A78082",
"i  c #907077",
"p  c #8D6E76",
"a  c #715B68",
"s  c #AF8686",
"d  c #B78185",
"f  c #B78084",
"g  c #BD8A8A",
"h  c #C29390",
"j  c #BD8E8E",
"k  c #AD8989",
"l  c #987B7F",
"z  c #937178",
"x  c #8C6973",
"c  c #715A68",
"v  c #CDA99F",
"b  c #C89F98",
"n  c #C9A099",
"m  c #B48284",
"M  c #745C6A",
"N  c #BC8F8D",
"B  c #755E6A",
"V  c #BF8D8C",
"C  c #AC747D",
"Z  c #A17079",
"A  c #BC8889",
"S  c #8B6D75",
"D  c #896A73",
"F  c #82606D",
"G  c #705A68",
"H  c #7E5F6C",
"J  c #886872",
"K  c #6E5967",
"L  c #86626F",
"P  c #946F77",
"I  c #99777C",
"U  c #9E8284",
"Y  c #A08586",
"T  c #9F8586",
"R  c #99787D",
"E  c #9C7F81",
"W  c #9D7F82",
"Q  c #967279",
"!  c #8E6571",
"~  c #A4747C",
"^  c #BD8B8B",
"/  c #CBA49B",
"(  c #CCA79D",
")  c #C49792",
"_  c #C9A098",
"`  c #C08E8D",
"'  c #B57C82",
"]  c #C2938F",
"[  c #BF8E8C",
"{  c #C0908D",
"}  c #BD908D",
"|  c #B38988",
" . c #C08F8D",
".. c #AE727C",
"X. c #BF8E8D",
"o. c #B57D83",
"O. c #AE717C",
"+. c #A27D80",
"@. c #C39390",
"#. c #CCA89E",
"$. c #C59994",
"%. c #C69C96",
"&. c #CCA89F",
"*. c #BF918E",
"=. c #B58888",
"-. c #AD7A7F",
";. c #C08E8C",
":. c #A87B80",
">. c #936673",
",. c #765F6C",
"<. c #76606C",
"1. c #755F6B",
"2. c #735B68",
"3. c #725A68",
"4. c #755E6B",
"5. c #C6A49C",
"6. c #C9AAA0",
"7. c #C5A29B",
"8. c #A36D78",
"9. c #9A6975",
"0. c #B48285",
"q. c #BE938F",
"w. c #C9A9A0",
"e. c #BF9490",
"r. c #C5A199",
"t. c #C09792",
"y. c #C49691",
"u. c #B88286",
"i. c #C79D96",
"p. c #C0918F",
"a. c #B98588",
"s. c #BF9190",
"d. c #B98487",
"f. c #B08787",
"g. c #CAA29A",
"h. c #C89E97",
"j. c #CDA89F",
"k. c #9A797D",
"l. c #9D8082",
"z. c #A1898A",
"x. c #A59293",
"c. c #9C7D80",
"v. c #9B7C80",
"b. c #9F8485",
"n. c #99787C",
"m. c #C9A199",
"M. c #CFADA3",
"N. c #D3B8AE",
"B. c #CEACA3",
"V. c #C79C95",
"C. c #CBA69D",
"Z. c #C1908D",
"A. c #B98285",
"S. c #B98386",
"D. c #B37A81",
"F. c #B47B81",
"G. c #98767B",
"H. c #876A73",
"J. c #866972",
"K. c #83646F",
"L. c #BD898A",
"P. c #BF8F8E",
"I. c #C79E98",
"U. c #BA8587",
"Y. c #C8A099",
"T. c #B0918F",
"R. c #A08183",
"E. c #9D7A7E",
"W. c #CAA39B",
/* pixels */
"      . X o O + + + + + + + + + + @ # $ % & + + * = - ; X X :     > X X , + ",
"< < < 1 2 3 + + + + + + + + + + + 4 5 6 7 8 + + O 2 9 0 2 2 q < < w 2 2 - + ",
"+ + + + + 8 e r r t + y e 8 + u i i p a s + + + + + + + + + + + + + + + + + ",
"+ + + + + 8 d f f g + h j 1 * k l z x c s + + + + + + + + + + + + + + + + + ",
"+ + + + + + + + + + + * v v 3 b n y m M s + + + + + + + + + + + + + + + + + ",
"+ + + + + + + + + + + + + + + + + + N B s + + + + + + + + + + + + + + + + + ",
"+ + + + + + + + + + + + + + + + + + N B s + + + + + + + + + + + + + + + + + ",
"+ + + + + + + + + + + + + + + + + V C $ Z A + + + + + + + + + + + + + + + + ",
"S S S S S S S S S S S S S S S S S D F G H J S S S S S S S S S S S S S S S S ",
"K L P I I I I U Y Y Y Y T R I E W I I I I I I I I I I I I I I I I I I I Q ! ",
"K ~ ^ + + + + / ; ; ; ; ( ) + b _ + + + + + + + + + + + + + + + + + + + ` ' ",
"K s + + + + + + + + + + + + + + + + + + + + + + ] [ ] { V V V V V 4 + } | | ",
"K s + + + + + + + + + + + + + + + + + + + + + +  ...X.o.O.......O.g + +.G G ",
"K s + + + + + + + + + + + + + + + + + + + + + + @. .#.$.%.&.&.&.h ] + *.=.-.",
"K s + + + + + + + + + + + + + + + + + + + + + + + + 2 ) * q q q 9 + + + ] ;.",
"K s + + + + + + + + + + + + + + + + + + + + + + + + + + + + + + + + + + + + ",
"K :.` + + + + + + + + + + + + + + + + + + + + + + + + + + + + + + + + + 8 & ",
"K >.:.s s s s s s s s s s s s s s s s s s s s s s s s s s s s s s s s s 7 % ",
"B ,.<.<.1.B B B B B B B B B B B B 6 2.K 3.6 B B B <.4.1.<.<.<.<.<.4.B B B B ",
"N 5.6.6.7.N N N N N N N N N N N N 5 8.2.9.0.N N q.w.e.r.6.6.6.6.6.t.N N N N ",
"+ - 2 2 $.+ + + + + + + + + + + + 4 5 6 7 8 + + O 2 9 0 2 2 2 2 2 y.+ + + + ",
"+ + + + + + + + + t r u.@.d [ + s i p a s + + + + + + + + + + + + + + + + + ",
"+ + + + + + + + i.p.a.s.n d.X.+ f.z x c s + + + + + + + + + + + + + + + + + ",
"+ + + + + + + + g.h.2 v j.) + + + y m M s + + + + + + + + + + + + + + + + + ",
"+ + + + + + + + + + + + + + + + + + N B s + + + + + + + + + + + + + + + + + ",
"+ + + + + + + + + + + + + + + + + + N B s + + + + + + + + + + + + + + + + + ",
"+ + + + + + + + + + + + + + + + + V C $ Z A + + + + + + + + + + + + + + + + ",
"S S S S S S S S S S S S S S S S S D F G H J S S S S S S S S S S S S S S S S ",
"K L P I I R T k.l.Y z.x.x.x.z.c.v.Y b.n.I I I I I I I I I I I I I I I I Q ! ",
"K ~ ^ + + ) ( * m.; M.N.N.N.B.i.V.; C.y.+ + + + + + + + + + + + + + + + ` ' ",
"K s + + + + + + + + + + + + + + + + + + + + + + + + + + + + + + + + + + + + ",
"K s + + + + + + + + + + + + + + + + + + + + + + + + + + + + + + + + + + + @.",
"K s + + + + + + + + + + + + + + + + + + + + + + + + + + + + + + + + + + Z.A.",
"K s + + + + + + + + + + + + + + + + + + + + + + + + + S.D.S. .F.8 G.H.H.J.K.",
"K s + + + + + + + + + + + + + + + + + + + + + + + + + L.d.P.I.U.Y.T.R.E.E.E.",
"K :.` + + + + + + + + + + + + + + + + + + + + + + + + + + 3 g.+ W.C.q + 8 & ",
"K >.:.s s s s s s s s s s s s s s s s s s s s s s s s s s s s s s s s s 7 % ",
"K K K K K K K K K K K K K K K K K K K K K K K K K K K K K K K K K K K K K K "
};
